<svg width="227" height="24" viewBox="0 0 227 24" fill="none" xmlns="http://www.w3.org/2000/svg">
<path d="M16.4659 16.3664C16.2295 18.6073 15.4193 20.3484 14.0311 21.5895C12.6385 22.8307 10.7423 23.4513 8.33807 23.4513C6.6652 23.4513 5.20254 23.0462 3.94132 22.2273C2.68885 21.4128 1.72104 20.2622 1.0335 18.7797C0.34158 17.2886 0 15.5691 0 13.6255V10.9019C0 8.93673 0.34158 7.21292 1.0335 5.73044C1.72104 4.24796 2.70199 3.10162 3.97635 2.28281C5.25947 1.46831 6.75279 1.0589 8.46069 1.0589C10.0109 1.0589 11.3597 1.34333 12.5071 1.90357C13.6632 2.45519 14.5741 3.26538 15.2398 4.33415C15.9054 5.39429 16.3127 6.66992 16.4659 8.16102H14.6091C14.1274 4.47205 12.0779 2.62757 8.46069 2.62757C7.10313 2.62757 5.92949 2.97233 4.93978 3.66186C3.94569 4.34277 3.18809 5.29948 2.66258 6.54063C2.13707 7.78178 1.87431 9.22547 1.87431 10.8674V13.6255C1.87431 15.2373 2.12393 16.668 2.62754 17.9178C3.12678 19.1719 3.86249 20.1501 4.83468 20.8483C5.81563 21.5507 6.98051 21.8998 8.33807 21.8998C10.2649 21.8998 11.7276 21.4473 12.7348 20.538C13.7377 19.6201 14.3639 18.2281 14.6091 16.3664H16.4659Z" fill="#FC7804"/>
<path d="M35.7752 21.6069V23.1583H22.9703V1.35205H24.8446V21.6069H35.7752Z" fill="#FC7804"/>
<path d="M94.6443 16.1251C94.6443 17.7111 94.2983 19.0556 93.6108 20.1589C92.932 21.2535 91.9992 22.0723 90.8081 22.6239C89.6257 23.1755 88.3032 23.4514 86.8317 23.4514C85.334 23.4514 83.9984 23.1799 82.8203 22.6412C81.6511 22.0895 80.7358 21.2621 80.0702 20.1589C79.4045 19.0556 79.0717 17.7111 79.0717 16.1251V1.35205H80.9285V16.1251C80.9285 17.3577 81.1781 18.4092 81.6817 19.2797C82.181 20.1546 82.8773 20.8096 83.7663 21.2449C84.6509 21.6844 85.6756 21.8999 86.8317 21.8999C87.9966 21.8999 89.0257 21.6844 89.9147 21.2449C90.8125 20.8096 91.5131 20.1546 92.0168 19.2797C92.516 18.4092 92.77 17.3577 92.77 16.1251V1.35205H94.6443V16.1251Z" fill="#FC7804"/>
<path d="M108.011 1.35205C109.842 1.35205 111.471 1.76577 112.898 2.5932C114.335 3.41201 115.456 4.57128 116.262 6.0753C117.068 7.57071 117.47 9.29453 117.47 11.2467V13.2636C117.47 15.2288 117.068 16.9655 116.262 18.4695C115.456 19.9649 114.326 21.1199 112.881 21.9344C111.431 22.7532 109.763 23.1583 107.871 23.1583H101.828V1.35205H108.011ZM115.614 11.2295C115.614 9.56603 115.298 8.1051 114.668 6.85102C114.037 5.60125 113.148 4.63592 112.005 3.95501C110.858 3.26549 109.526 2.92072 108.011 2.92072H103.702V21.6069H107.871C109.434 21.6069 110.801 21.2578 111.97 20.5553C113.135 19.8572 114.037 18.8789 114.668 17.6249C115.298 16.3622 115.614 14.9099 115.614 13.2636V11.2295Z" fill="#FC7804"/>
<path d="M134.44 11.7811C135.302 11.9664 136.056 12.3112 136.699 12.8154C137.352 13.3239 137.855 13.9445 138.206 14.6771C138.565 15.4011 138.749 16.1855 138.749 17.0215C138.749 18.323 138.451 19.4306 137.855 20.3485C137.269 21.2707 136.445 21.9689 135.386 22.4515C134.321 22.9256 133.078 23.1583 131.654 23.1583H124.175V1.35205H130.709C133.021 1.35205 134.799 1.8261 136.051 2.76558C137.312 3.69644 137.943 5.1229 137.943 7.04064C137.943 8.16974 137.632 9.15231 137.015 9.98836C136.406 10.8158 135.548 11.4148 134.44 11.7811ZM126.049 2.92072V11.1261H130.901C132.548 11.1261 133.813 10.777 134.702 10.0746C135.6 9.37641 136.051 8.35936 136.051 7.0234C136.051 5.63573 135.605 4.60575 134.72 3.93777C133.831 3.26118 132.495 2.92072 130.709 2.92072H126.049ZM131.654 21.6069C132.727 21.6069 133.656 21.4259 134.44 21.0553C135.219 20.6889 135.815 20.1675 136.226 19.4866C136.647 18.7971 136.857 17.9869 136.857 17.056C136.857 16.207 136.669 15.4529 136.296 14.7978C135.933 14.1341 135.368 13.6084 134.597 13.2291C133.835 12.8499 132.903 12.6603 131.795 12.6603H126.049V21.6069H131.654Z" fill="#FFC433"/>
<path d="M161.559 13.4187C161.559 15.4441 161.2 17.211 160.491 18.728C159.79 20.2363 158.783 21.3999 157.478 22.2273C156.181 23.0462 154.666 23.4513 152.941 23.4513C151.233 23.4513 149.726 23.0462 148.421 22.2273C147.112 21.3999 146.096 20.2277 145.373 18.7108C144.647 17.1938 144.287 15.4312 144.287 13.4187V11.0915C144.287 9.08326 144.642 7.31635 145.356 5.79939C146.079 4.28243 147.09 3.11886 148.386 2.30005C149.691 1.47261 151.198 1.0589 152.906 1.0589C154.644 1.0589 156.164 1.47261 157.46 2.30005C158.765 3.11886 159.777 4.28243 160.491 5.79939C161.2 7.30773 161.559 9.07033 161.559 11.0915V13.4187ZM159.702 11.057C159.702 9.34614 159.426 7.86366 158.879 6.60958C158.34 5.34689 157.565 4.37724 156.549 3.69634C155.533 3.01974 154.316 2.67928 152.906 2.67928C151.526 2.67928 150.331 3.01974 149.315 3.69634C148.299 4.37724 147.515 5.34689 146.968 6.60958C146.429 7.87659 146.162 9.35907 146.162 11.057V13.4187C146.162 15.1425 146.433 16.6379 146.985 17.9006C147.532 19.1676 148.316 20.1415 149.332 20.8311C150.357 21.512 151.561 21.8481 152.941 21.8481C154.351 21.8481 155.568 21.512 156.584 20.8311C157.6 20.1415 158.371 19.1719 158.897 17.9178C159.431 16.6551 159.702 15.1554 159.702 13.4187V11.057Z" fill="#FFC433"/>
<path d="M180.177 17.056H170.104L167.827 23.1583H165.883L174.256 1.35205H176.025L184.416 23.1583H182.471L180.177 17.056ZM179.599 15.4701L175.149 3.59301L170.7 15.4701H179.599Z" fill="#FFC433"/>
<path d="M205.259 22.9687V23.1583H203.245L197.902 14.0738H191.456V23.1583H189.581V1.35205H196.781C198.322 1.35205 199.654 1.602 200.775 2.09329C201.905 2.58889 202.776 3.3172 203.385 4.28254C203.989 5.24787 204.296 6.41576 204.296 7.78188C204.296 8.72567 204.103 9.60051 203.718 10.4021C203.332 11.208 202.794 11.8932 202.106 12.4534C201.414 13.018 200.621 13.4317 199.724 13.6946L205.259 22.9687ZM197.184 12.5051C198.305 12.5051 199.255 12.294 200.039 11.8673C200.832 11.4321 201.427 10.8589 201.826 10.1435C202.22 9.41951 202.421 8.63517 202.421 7.78188C202.421 6.78207 202.202 5.92016 201.773 5.19616C201.34 4.46354 200.696 3.89899 199.846 3.50682C199.005 3.11896 197.981 2.92072 196.781 2.92072H191.456V12.5051H197.184Z" fill="#FFC433"/>
<path d="M217.541 1.35205C219.371 1.35205 221 1.76577 222.428 2.5932C223.864 3.41201 224.986 4.57128 225.791 6.0753C226.597 7.57071 227 9.29453 227 11.2467V13.2636C227 15.2288 226.597 16.9655 225.791 18.4695C224.986 19.9649 223.856 21.1199 222.411 21.9344C220.961 22.7532 219.293 23.1583 217.401 23.1583H211.357V1.35205H217.541ZM225.143 11.2295C225.143 9.56603 224.828 8.1051 224.197 6.85102C223.567 5.60125 222.678 4.63592 221.535 3.95501C220.387 3.26549 219.056 2.92072 217.541 2.92072H213.232V21.6069H217.401C218.964 21.6069 220.33 21.2578 221.5 20.5553C222.665 19.8572 223.567 18.8789 224.197 17.6249C224.828 16.3622 225.143 14.9099 225.143 13.2636V11.2295Z" fill="#FFC433"/>
<path d="M70.279 10.86C69.924 4.81806 64.6345 0 58.181 0C52.7746 0 48.0962 3.34851 46.5772 8.21398C46.1638 8.14934 45.7548 8.11917 45.3504 8.11917C41.027 8.11917 37.5082 11.4591 37.5082 15.5574C37.5082 19.6601 41.027 23 45.3504 23H69.5824C73.1193 23 76 20.2678 76 16.9106C76 13.7776 73.4878 11.1919 70.279 10.86ZM69.5824 21.6468H45.3504C41.8135 21.6468 38.9373 18.9146 38.9373 15.5574C38.9373 12.2003 41.8135 9.47236 45.3504 9.47236C45.8582 9.47236 46.384 9.53701 46.9188 9.66198C47.103 9.70939 47.3008 9.67922 47.4626 9.58441C47.6244 9.4896 47.7412 9.33877 47.7861 9.16208C48.9321 4.5638 53.206 1.35319 58.181 1.35319C64.0727 1.35319 68.8724 5.90838 68.8724 11.5022C68.8724 11.8728 69.187 12.1788 69.5824 12.1788C72.3328 12.1788 74.5709 14.3034 74.5709 16.9106C74.5709 19.5222 72.3328 21.6468 69.5824 21.6468Z" fill="#FFC433"/>
<path d="M69.7708 10.9781C69.4158 4.87043 64.1263 0 57.6728 0C52.2664 0 47.5881 3.38491 46.0691 8.30326C45.6556 8.23792 45.2466 8.20742 44.8422 8.20742C40.5189 8.20742 37 11.5836 37 15.7265C37 19.8738 40.5189 23.25 44.8422 23.25H69.0743C72.6111 23.25 75.4918 20.4881 75.4918 17.0944C75.4918 13.9273 72.9796 11.3135 69.7708 10.9781ZM69.0743 21.8821H44.8422C41.3053 21.8821 38.4291 19.1202 38.4291 15.7265C38.4291 12.3329 41.3053 9.57532 44.8422 9.57532C45.35 9.57532 45.8758 9.64067 46.4106 9.767C46.5949 9.81492 46.7926 9.78443 46.9544 9.68859C47.1162 9.59275 47.233 9.44028 47.278 9.26166C48.424 4.61341 52.6978 1.3679 57.6728 1.3679C63.5645 1.3679 68.3642 5.9726 68.3642 11.6272C68.3642 12.0018 68.6788 12.3111 69.0743 12.3111C71.8246 12.3111 74.0627 14.4588 74.0627 17.0944C74.0627 19.7344 71.8246 21.8821 69.0743 21.8821Z" fill="#FFC433"/>
</svg>
